<mxfile host="65bd71144e">
    <diagram id="BpIwMMfw0xPvnEg0o2dw" name="Page-1">
        <mxGraphModel dx="1386" dy="784" grid="1" gridSize="10" guides="1" tooltips="1" connect="1" arrows="1" fold="1" page="1" pageScale="1" pageWidth="850" pageHeight="1100" math="0" shadow="0">
            <root>
                <mxCell id="0"/>
                <mxCell id="1" parent="0"/>
                <mxCell id="60" value="" style="rounded=0;whiteSpace=wrap;html=1;fillColor=#f9f7ed;strokeColor=#000000;fontSize=13;" parent="1" vertex="1">
                    <mxGeometry x="10" y="110" width="1400" height="1000" as="geometry"/>
                </mxCell>
                <mxCell id="2" value="" style="rounded=0;whiteSpace=wrap;html=1;fillColor=none;strokeWidth=2;strokeColor=#0000FF;verticalAlign=top;horizontal=0;fontColor=#000000;fontSize=13;" parent="1" vertex="1">
                    <mxGeometry x="560" y="420" width="280" height="170" as="geometry"/>
                </mxCell>
                <mxCell id="3" style="edgeStyle=orthogonalEdgeStyle;rounded=0;orthogonalLoop=1;jettySize=auto;html=1;fontSize=13;fontColor=#000000;" parent="1" source="4" edge="1">
                    <mxGeometry relative="1" as="geometry">
                        <mxPoint x="340" y="1080" as="targetPoint"/>
                    </mxGeometry>
                </mxCell>
                <mxCell id="4" value="API" style="rounded=0;whiteSpace=wrap;html=1;fontSize=13;fillColor=none;strokeColor=#000000;fontColor=#000000;fontStyle=1" parent="1" vertex="1">
                    <mxGeometry x="280" y="160" width="120" height="60" as="geometry"/>
                </mxCell>
                <mxCell id="5" style="edgeStyle=orthogonalEdgeStyle;rounded=0;orthogonalLoop=1;jettySize=auto;html=1;fontSize=13;fontColor=#000000;strokeColor=#000000;strokeWidth=2;" parent="1" source="6" edge="1">
                    <mxGeometry relative="1" as="geometry">
                        <mxPoint x="581" y="1080" as="targetPoint"/>
                    </mxGeometry>
                </mxCell>
                <mxCell id="6" value="Database" style="rounded=0;whiteSpace=wrap;html=1;fontSize=13;fillColor=none;strokeColor=#000000;fontColor=#000000;fontStyle=1" parent="1" vertex="1">
                    <mxGeometry x="521" y="160" width="120" height="60" as="geometry"/>
                </mxCell>
                <mxCell id="7" style="edgeStyle=orthogonalEdgeStyle;rounded=0;orthogonalLoop=1;jettySize=auto;html=1;fontSize=13;fontColor=#000000;" parent="1" edge="1">
                    <mxGeometry relative="1" as="geometry">
                        <mxPoint x="100" y="1080" as="targetPoint"/>
                        <mxPoint x="100" y="220" as="sourcePoint"/>
                    </mxGeometry>
                </mxCell>
                <mxCell id="8" value="" style="endArrow=classic;html=1;rounded=0;fontSize=13;fontColor=#000000;" parent="1" edge="1">
                    <mxGeometry width="50" height="50" relative="1" as="geometry">
                        <mxPoint x="100" y="280" as="sourcePoint"/>
                        <mxPoint x="340" y="280" as="targetPoint"/>
                    </mxGeometry>
                </mxCell>
                <mxCell id="9" value="Create Schedule" style="edgeLabel;html=1;align=center;verticalAlign=middle;resizable=0;points=[];fontSize=13;fontColor=#000000;" parent="8" vertex="1" connectable="0">
                    <mxGeometry x="-0.275" y="1" relative="1" as="geometry">
                        <mxPoint as="offset"/>
                    </mxGeometry>
                </mxCell>
                <mxCell id="10" value="" style="endArrow=classic;html=1;rounded=0;fontSize=13;fontColor=#000000;strokeColor=#000000;" parent="1" edge="1">
                    <mxGeometry width="50" height="50" relative="1" as="geometry">
                        <mxPoint x="340" y="280" as="sourcePoint"/>
                        <mxPoint x="580" y="280" as="targetPoint"/>
                    </mxGeometry>
                </mxCell>
                <mxCell id="11" value="Save schedule" style="edgeLabel;html=1;align=center;verticalAlign=middle;resizable=0;points=[];fontSize=13;fontColor=#000000;labelBackgroundColor=#FFFFFF;" parent="10" vertex="1" connectable="0">
                    <mxGeometry x="-0.275" y="1" relative="1" as="geometry">
                        <mxPoint as="offset"/>
                    </mxGeometry>
                </mxCell>
                <mxCell id="16" value="" style="rounded=0;whiteSpace=wrap;html=1;fillColor=none;strokeWidth=2;strokeColor=#00ff40;fontSize=13;fontColor=#000000;" parent="1" vertex="1">
                    <mxGeometry x="310" y="260" width="290" height="80" as="geometry"/>
                </mxCell>
                <mxCell id="12" value="" style="endArrow=classic;html=1;rounded=0;fontSize=13;fontColor=#000000;strokeColor=#000000;" parent="1" edge="1">
                    <mxGeometry width="50" height="50" relative="1" as="geometry">
                        <mxPoint x="340" y="320" as="sourcePoint"/>
                        <mxPoint x="580" y="320" as="targetPoint"/>
                    </mxGeometry>
                </mxCell>
                <mxCell id="13" value="Create occurence" style="edgeLabel;html=1;align=center;verticalAlign=middle;resizable=0;points=[];fontSize=13;fontColor=#000000;labelBackgroundColor=#FFFFFF;" parent="12" vertex="1" connectable="0">
                    <mxGeometry x="-0.275" y="1" relative="1" as="geometry">
                        <mxPoint as="offset"/>
                    </mxGeometry>
                </mxCell>
                <mxCell id="14" value="" style="endArrow=classic;html=1;rounded=0;fontSize=13;fontColor=#000000;" parent="1" edge="1">
                    <mxGeometry width="50" height="50" relative="1" as="geometry">
                        <mxPoint x="340" y="360" as="sourcePoint"/>
                        <mxPoint x="100" y="360" as="targetPoint"/>
                    </mxGeometry>
                </mxCell>
                <mxCell id="15" value="return response" style="edgeLabel;html=1;align=center;verticalAlign=middle;resizable=0;points=[];fontSize=13;fontColor=#000000;" parent="14" vertex="1" connectable="0">
                    <mxGeometry x="-0.275" y="1" relative="1" as="geometry">
                        <mxPoint x="-33" y="-1" as="offset"/>
                    </mxGeometry>
                </mxCell>
                <mxCell id="17" style="edgeStyle=orthogonalEdgeStyle;rounded=0;orthogonalLoop=1;jettySize=auto;html=1;fontSize=13;fontColor=#000000;strokeColor=#000000;strokeWidth=2;" parent="1" source="18" edge="1">
                    <mxGeometry relative="1" as="geometry">
                        <mxPoint x="821" y="1080" as="targetPoint"/>
                    </mxGeometry>
                </mxCell>
                <mxCell id="18" value="Worker" style="rounded=0;whiteSpace=wrap;html=1;fontSize=13;fillColor=none;strokeColor=#000000;fontColor=#000000;fontStyle=1" parent="1" vertex="1">
                    <mxGeometry x="761" y="160" width="120" height="60" as="geometry"/>
                </mxCell>
                <mxCell id="19" style="edgeStyle=orthogonalEdgeStyle;rounded=0;orthogonalLoop=1;jettySize=auto;html=1;fontSize=13;fontColor=#000000;strokeColor=#000000;strokeWidth=2;" parent="1" source="21" edge="1">
                    <mxGeometry relative="1" as="geometry">
                        <mxPoint x="1060" y="1080" as="targetPoint"/>
                    </mxGeometry>
                </mxCell>
                <mxCell id="20" value="&lt;font style=&quot;font-size: 13px;&quot;&gt;Yes&lt;/font&gt;" style="edgeLabel;html=1;align=center;verticalAlign=middle;resizable=0;points=[];fontColor=#000000;labelBackgroundColor=#FFFFFF;fontSize=13;" parent="19" vertex="1" connectable="0">
                    <mxGeometry x="0.6151" y="3" relative="1" as="geometry">
                        <mxPoint y="-125" as="offset"/>
                    </mxGeometry>
                </mxCell>
                <mxCell id="21" value="Executor" style="rounded=0;whiteSpace=wrap;html=1;fontSize=13;fillColor=none;strokeColor=#000000;fontColor=#000000;fontStyle=1" parent="1" vertex="1">
                    <mxGeometry x="999" y="160" width="120" height="60" as="geometry"/>
                </mxCell>
                <mxCell id="22" value="" style="endArrow=classic;html=1;rounded=0;fontSize=13;fontColor=#000000;strokeColor=#000000;" parent="1" edge="1">
                    <mxGeometry width="50" height="50" relative="1" as="geometry">
                        <mxPoint x="820" y="240" as="sourcePoint"/>
                        <mxPoint x="580" y="240" as="targetPoint"/>
                    </mxGeometry>
                </mxCell>
                <mxCell id="23" value="register worker" style="edgeLabel;html=1;align=center;verticalAlign=middle;resizable=0;points=[];fontSize=13;fontColor=#000000;labelBackgroundColor=#FFFFFF;" parent="22" vertex="1" connectable="0">
                    <mxGeometry x="-0.275" y="1" relative="1" as="geometry">
                        <mxPoint x="-33" y="-1" as="offset"/>
                    </mxGeometry>
                </mxCell>
                <mxCell id="24" value="" style="endArrow=classic;html=1;rounded=0;fontSize=13;fontColor=#000000;strokeColor=#000000;" parent="1" edge="1">
                    <mxGeometry width="50" height="50" relative="1" as="geometry">
                        <mxPoint x="820" y="440" as="sourcePoint"/>
                        <mxPoint x="580" y="440" as="targetPoint"/>
                    </mxGeometry>
                </mxCell>
                <mxCell id="25" value="Remove deadbodies" style="edgeLabel;html=1;align=center;verticalAlign=middle;resizable=0;points=[];fontSize=13;fontColor=#000000;labelBackgroundColor=#FFFFFF;" parent="24" vertex="1" connectable="0">
                    <mxGeometry x="-0.275" y="1" relative="1" as="geometry">
                        <mxPoint x="-33" y="-1" as="offset"/>
                    </mxGeometry>
                </mxCell>
                <mxCell id="26" value="" style="endArrow=classic;html=1;rounded=0;fontSize=13;fontColor=#000000;strokeColor=#000000;" parent="1" edge="1">
                    <mxGeometry width="50" height="50" relative="1" as="geometry">
                        <mxPoint x="820" y="480" as="sourcePoint"/>
                        <mxPoint x="580" y="480" as="targetPoint"/>
                    </mxGeometry>
                </mxCell>
                <mxCell id="27" value="punch card" style="edgeLabel;html=1;align=center;verticalAlign=middle;resizable=0;points=[];fontSize=13;fontColor=#000000;labelBackgroundColor=#FFFFFF;" parent="26" vertex="1" connectable="0">
                    <mxGeometry x="-0.275" y="1" relative="1" as="geometry">
                        <mxPoint x="-33" y="-1" as="offset"/>
                    </mxGeometry>
                </mxCell>
                <mxCell id="28" value="" style="endArrow=classic;html=1;rounded=0;fontSize=13;fontColor=#000000;strokeColor=#000000;" parent="1" edge="1">
                    <mxGeometry width="50" height="50" relative="1" as="geometry">
                        <mxPoint x="820" y="560" as="sourcePoint"/>
                        <mxPoint x="580" y="560" as="targetPoint"/>
                    </mxGeometry>
                </mxCell>
                <mxCell id="29" value="get expired occurences" style="edgeLabel;html=1;align=center;verticalAlign=middle;resizable=0;points=[];fontSize=13;fontColor=#000000;labelBackgroundColor=#FFFFFF;" parent="28" vertex="1" connectable="0">
                    <mxGeometry x="-0.275" y="1" relative="1" as="geometry">
                        <mxPoint x="-33" y="-1" as="offset"/>
                    </mxGeometry>
                </mxCell>
                <mxCell id="30" value="" style="endArrow=classic;html=1;rounded=0;fontSize=13;fontColor=#000000;strokeColor=#000000;" parent="1" edge="1">
                    <mxGeometry width="50" height="50" relative="1" as="geometry">
                        <mxPoint x="820" y="520" as="sourcePoint"/>
                        <mxPoint x="580" y="520" as="targetPoint"/>
                    </mxGeometry>
                </mxCell>
                <mxCell id="31" value="assign new work to itself" style="edgeLabel;html=1;align=center;verticalAlign=middle;resizable=0;points=[];fontSize=13;fontColor=#000000;labelBackgroundColor=#FFFFFF;" parent="30" vertex="1" connectable="0">
                    <mxGeometry x="-0.275" y="1" relative="1" as="geometry">
                        <mxPoint x="-33" y="-1" as="offset"/>
                    </mxGeometry>
                </mxCell>
                <mxCell id="32" value="" style="endArrow=classic;html=1;rounded=0;fontSize=13;fontColor=#000000;strokeColor=#000000;" parent="1" edge="1">
                    <mxGeometry width="50" height="50" relative="1" as="geometry">
                        <mxPoint x="820" y="640" as="sourcePoint"/>
                        <mxPoint x="1060" y="640" as="targetPoint"/>
                    </mxGeometry>
                </mxCell>
                <mxCell id="33" value="submit occurence for execution" style="edgeLabel;html=1;align=center;verticalAlign=middle;resizable=0;points=[];fontSize=13;fontColor=#000000;labelBackgroundColor=#FFFFFF;" parent="32" vertex="1" connectable="0">
                    <mxGeometry x="-0.275" y="1" relative="1" as="geometry">
                        <mxPoint x="28" y="-1" as="offset"/>
                    </mxGeometry>
                </mxCell>
                <mxCell id="41" value="" style="rounded=0;whiteSpace=wrap;html=1;fillColor=none;strokeWidth=2;strokeColor=#00ff40;fontSize=13;fontColor=#000000;" parent="1" vertex="1">
                    <mxGeometry x="570" y="780" width="510" height="80" as="geometry"/>
                </mxCell>
                <mxCell id="34" value="" style="endArrow=classic;html=1;rounded=0;fontSize=13;fontColor=#000000;strokeColor=#000000;" parent="1" edge="1">
                    <mxGeometry width="50" height="50" relative="1" as="geometry">
                        <mxPoint x="1060" y="680" as="sourcePoint"/>
                        <mxPoint x="580" y="680" as="targetPoint"/>
                    </mxGeometry>
                </mxCell>
                <mxCell id="35" value="get schedule for occurence" style="edgeLabel;html=1;align=center;verticalAlign=middle;resizable=0;points=[];fontSize=13;fontColor=#000000;labelBackgroundColor=#FFFFFF;" parent="34" vertex="1" connectable="0">
                    <mxGeometry x="-0.275" y="1" relative="1" as="geometry">
                        <mxPoint x="-46" y="-2" as="offset"/>
                    </mxGeometry>
                </mxCell>
                <mxCell id="36" style="edgeStyle=orthogonalEdgeStyle;rounded=0;orthogonalLoop=1;jettySize=auto;html=1;exitX=0;exitY=0.5;exitDx=0;exitDy=0;fontColor=#000000;strokeColor=#000000;fontSize=13;" parent="1" source="38" edge="1">
                    <mxGeometry relative="1" as="geometry">
                        <mxPoint x="580" y="730" as="targetPoint"/>
                    </mxGeometry>
                </mxCell>
                <mxCell id="37" value="No, Remove Occurence &amp;amp; ignore" style="edgeLabel;html=1;align=center;verticalAlign=middle;resizable=0;points=[];fontSize=13;fontColor=#000000;labelBackgroundColor=#FFFFFF;" parent="36" vertex="1" connectable="0">
                    <mxGeometry x="-0.265" y="-2" relative="1" as="geometry">
                        <mxPoint x="-19" as="offset"/>
                    </mxGeometry>
                </mxCell>
                <mxCell id="38" value="&lt;font style=&quot;font-size: 13px;&quot;&gt;is schedule Active&lt;/font&gt;" style="rhombus;whiteSpace=wrap;html=1;fillColor=none;strokeColor=#000000;fontColor=#000000;fontSize=13;" parent="1" vertex="1">
                    <mxGeometry x="1019" y="690" width="80" height="80" as="geometry"/>
                </mxCell>
                <mxCell id="39" value="" style="endArrow=classic;html=1;rounded=0;fontSize=13;fontColor=#000000;strokeColor=#000000;" parent="1" edge="1">
                    <mxGeometry width="50" height="50" relative="1" as="geometry">
                        <mxPoint x="1061" y="800" as="sourcePoint"/>
                        <mxPoint x="581" y="800" as="targetPoint"/>
                    </mxGeometry>
                </mxCell>
                <mxCell id="40" value="add record in history table for occurence" style="edgeLabel;html=1;align=center;verticalAlign=middle;resizable=0;points=[];fontSize=13;fontColor=#000000;labelBackgroundColor=#FFFFFF;" parent="39" vertex="1" connectable="0">
                    <mxGeometry x="-0.275" y="1" relative="1" as="geometry">
                        <mxPoint x="-46" y="-2" as="offset"/>
                    </mxGeometry>
                </mxCell>
                <mxCell id="42" value="" style="endArrow=classic;html=1;rounded=0;fontSize=13;fontColor=#000000;strokeColor=#000000;" parent="1" edge="1">
                    <mxGeometry width="50" height="50" relative="1" as="geometry">
                        <mxPoint x="1061" y="840" as="sourcePoint"/>
                        <mxPoint x="581" y="840" as="targetPoint"/>
                    </mxGeometry>
                </mxCell>
                <mxCell id="43" value="add next occurence" style="edgeLabel;html=1;align=center;verticalAlign=middle;resizable=0;points=[];fontSize=13;fontColor=#000000;labelBackgroundColor=#FFFFFF;" parent="42" vertex="1" connectable="0">
                    <mxGeometry x="-0.275" y="1" relative="1" as="geometry">
                        <mxPoint x="-46" y="-2" as="offset"/>
                    </mxGeometry>
                </mxCell>
                <mxCell id="44" style="edgeStyle=orthogonalEdgeStyle;rounded=0;orthogonalLoop=1;jettySize=auto;html=1;fontColor=#000000;labelBackgroundColor=#000000;strokeColor=#000000;fontSize=13;strokeWidth=2;" parent="1" source="45" edge="1">
                    <mxGeometry relative="1" as="geometry">
                        <mxPoint x="1300" y="1080" as="targetPoint"/>
                    </mxGeometry>
                </mxCell>
                <mxCell id="45" value="Hook" style="rounded=0;whiteSpace=wrap;html=1;fontSize=13;fillColor=none;strokeColor=#000000;fontColor=#000000;fontStyle=1" parent="1" vertex="1">
                    <mxGeometry x="1239" y="160" width="120" height="60" as="geometry"/>
                </mxCell>
                <mxCell id="46" value="" style="endArrow=classic;html=1;rounded=0;fontSize=13;fontColor=#000000;strokeColor=#000000;" parent="1" edge="1">
                    <mxGeometry width="50" height="50" relative="1" as="geometry">
                        <mxPoint x="1060" y="880" as="sourcePoint"/>
                        <mxPoint x="1300" y="880" as="targetPoint"/>
                    </mxGeometry>
                </mxCell>
                <mxCell id="47" value="Execute hook" style="edgeLabel;html=1;align=center;verticalAlign=middle;resizable=0;points=[];fontSize=13;fontColor=#000000;labelBackgroundColor=#FFFFFF;" parent="46" vertex="1" connectable="0">
                    <mxGeometry x="-0.275" y="1" relative="1" as="geometry">
                        <mxPoint x="28" y="-1" as="offset"/>
                    </mxGeometry>
                </mxCell>
                <mxCell id="48" value="" style="endArrow=classic;html=1;rounded=0;fontSize=13;fontColor=#000000;strokeColor=#000000;" parent="1" edge="1">
                    <mxGeometry width="50" height="50" relative="1" as="geometry">
                        <mxPoint x="1300" y="920" as="sourcePoint"/>
                        <mxPoint x="1060" y="920" as="targetPoint"/>
                    </mxGeometry>
                </mxCell>
                <mxCell id="49" value="Hook SUCCESS/FAILED" style="edgeLabel;html=1;align=center;verticalAlign=middle;resizable=0;points=[];fontSize=13;fontColor=#000000;labelBackgroundColor=#FFFFFF;" parent="48" vertex="1" connectable="0">
                    <mxGeometry x="-0.275" y="1" relative="1" as="geometry">
                        <mxPoint x="-33" y="-1" as="offset"/>
                    </mxGeometry>
                </mxCell>
                <mxCell id="54" value="" style="rounded=0;whiteSpace=wrap;html=1;fillColor=none;strokeWidth=2;strokeColor=#00ff40;fontSize=13;fontColor=#000000;" parent="1" vertex="1">
                    <mxGeometry x="571" y="940" width="500" height="80" as="geometry"/>
                </mxCell>
                <mxCell id="50" value="" style="endArrow=classic;html=1;rounded=0;fontSize=13;fontColor=#000000;strokeColor=#000000;" parent="1" edge="1">
                    <mxGeometry width="50" height="50" relative="1" as="geometry">
                        <mxPoint x="1060" y="960" as="sourcePoint"/>
                        <mxPoint x="580" y="960" as="targetPoint"/>
                    </mxGeometry>
                </mxCell>
                <mxCell id="51" value="Update history" style="edgeLabel;html=1;align=center;verticalAlign=middle;resizable=0;points=[];fontSize=13;fontColor=#000000;labelBackgroundColor=#FFFFFF;" parent="50" vertex="1" connectable="0">
                    <mxGeometry x="-0.275" y="1" relative="1" as="geometry">
                        <mxPoint x="-33" y="-1" as="offset"/>
                    </mxGeometry>
                </mxCell>
                <mxCell id="52" value="" style="endArrow=classic;html=1;rounded=0;fontSize=13;fontColor=#000000;strokeColor=#000000;" parent="1" edge="1">
                    <mxGeometry width="50" height="50" relative="1" as="geometry">
                        <mxPoint x="1061" y="1000" as="sourcePoint"/>
                        <mxPoint x="581" y="1000" as="targetPoint"/>
                    </mxGeometry>
                </mxCell>
                <mxCell id="53" value="Delete completed occurence" style="edgeLabel;html=1;align=center;verticalAlign=middle;resizable=0;points=[];fontSize=13;fontColor=#000000;labelBackgroundColor=#FFFFFF;" parent="52" vertex="1" connectable="0">
                    <mxGeometry x="-0.275" y="1" relative="1" as="geometry">
                        <mxPoint x="-33" y="-1" as="offset"/>
                    </mxGeometry>
                </mxCell>
                <mxCell id="55" value="&lt;font style=&quot;font-size: 13px;&quot;&gt;Periodic&lt;/font&gt;" style="text;html=1;strokeColor=none;fillColor=none;align=center;verticalAlign=middle;whiteSpace=wrap;rounded=0;fontStyle=1;fontColor=#000000;fontSize=13;" parent="1" vertex="1">
                    <mxGeometry x="660" y="390" width="60" height="30" as="geometry"/>
                </mxCell>
                <mxCell id="56" value="Transaction" style="text;html=1;strokeColor=none;fillColor=none;align=center;verticalAlign=middle;whiteSpace=wrap;rounded=0;fontSize=13;fontStyle=1;fontColor=#000000;" parent="1" vertex="1">
                    <mxGeometry x="410" y="230" width="90" height="30" as="geometry"/>
                </mxCell>
                <mxCell id="57" value="Transaction" style="text;html=1;strokeColor=none;fillColor=none;align=center;verticalAlign=middle;whiteSpace=wrap;rounded=0;fontSize=13;fontColor=#000000;labelBackgroundColor=none;fontStyle=1" parent="1" vertex="1">
                    <mxGeometry x="780" y="750" width="90" height="30" as="geometry"/>
                </mxCell>
                <mxCell id="58" value="Transaction" style="text;html=1;strokeColor=none;fillColor=none;align=center;verticalAlign=middle;whiteSpace=wrap;rounded=0;fontSize=13;fontStyle=1;fontColor=#000000;" parent="1" vertex="1">
                    <mxGeometry x="780" y="910" width="90" height="30" as="geometry"/>
                </mxCell>
                <mxCell id="59" value="User" style="shape=umlActor;verticalLabelPosition=bottom;verticalAlign=top;html=1;outlineConnect=0;horizontal=0;fontColor=none;strokeColor=#000000;noLabel=1;fontSize=13;" parent="1" vertex="1">
                    <mxGeometry x="85" y="160" width="30" height="60" as="geometry"/>
                </mxCell>
                <mxCell id="61" style="edgeStyle=orthogonalEdgeStyle;rounded=0;orthogonalLoop=1;jettySize=auto;html=1;fontSize=13;fontColor=#000000;strokeColor=#000000;strokeWidth=2;" parent="1" edge="1">
                    <mxGeometry relative="1" as="geometry">
                        <mxPoint x="100" y="1080" as="targetPoint"/>
                        <mxPoint x="100" y="220" as="sourcePoint"/>
                    </mxGeometry>
                </mxCell>
                <mxCell id="62" value="" style="endArrow=classic;html=1;rounded=0;fontSize=13;fontColor=#000000;strokeColor=#000000;" parent="1" edge="1">
                    <mxGeometry width="50" height="50" relative="1" as="geometry">
                        <mxPoint x="100" y="280" as="sourcePoint"/>
                        <mxPoint x="340" y="280" as="targetPoint"/>
                    </mxGeometry>
                </mxCell>
                <mxCell id="63" value="Create Schedule" style="edgeLabel;html=1;align=center;verticalAlign=middle;resizable=0;points=[];fontSize=13;fontColor=#000000;labelBackgroundColor=#FFFFFF;" parent="62" vertex="1" connectable="0">
                    <mxGeometry x="-0.275" y="1" relative="1" as="geometry">
                        <mxPoint as="offset"/>
                    </mxGeometry>
                </mxCell>
                <mxCell id="64" value="" style="endArrow=classic;html=1;rounded=0;fontSize=13;fontColor=#000000;strokeColor=#000000;" parent="1" edge="1">
                    <mxGeometry width="50" height="50" relative="1" as="geometry">
                        <mxPoint x="340" y="360" as="sourcePoint"/>
                        <mxPoint x="100" y="360" as="targetPoint"/>
                    </mxGeometry>
                </mxCell>
                <mxCell id="65" value="return response" style="edgeLabel;html=1;align=center;verticalAlign=middle;resizable=0;points=[];fontSize=13;fontColor=#000000;labelBackgroundColor=#FFFFFF;" parent="64" vertex="1" connectable="0">
                    <mxGeometry x="-0.275" y="1" relative="1" as="geometry">
                        <mxPoint x="-33" y="-1" as="offset"/>
                    </mxGeometry>
                </mxCell>
                <mxCell id="66" style="edgeStyle=orthogonalEdgeStyle;rounded=0;orthogonalLoop=1;jettySize=auto;html=1;fontSize=13;fontColor=#000000;strokeColor=#000000;strokeWidth=2;" parent="1" edge="1">
                    <mxGeometry relative="1" as="geometry">
                        <mxPoint x="340" y="1080" as="targetPoint"/>
                        <mxPoint x="340" y="220" as="sourcePoint"/>
                    </mxGeometry>
                </mxCell>
            </root>
        </mxGraphModel>
    </diagram>
</mxfile>